<?xml version="1.0" encoding="UTF-8" standalone="no"?>
<!DOCTYPE svg PUBLIC "-//W3C//DTD SVG 1.1//EN"
 "http://www.w3.org/Graphics/SVG/1.1/DTD/svg11.dtd">
<!-- Generated by graphviz version 2.40.1 (20161225.0304)
 -->
<!-- Title: G Pages: 1 -->
<svg width="497pt" height="1121pt"
 viewBox="0.00 0.00 496.57 1121.00" xmlns="http://www.w3.org/2000/svg" xmlns:xlink="http://www.w3.org/1999/xlink">
<g id="graph0" class="graph" transform="scale(1 1) rotate(0) translate(4 1117)">
<title>G</title>
<polygon fill="#ffffff" stroke="transparent" points="-4,4 -4,-1117 492.566,-1117 492.566,4 -4,4"/>
<!-- A0 -->
<g id="node1" class="node">
<title>A0</title>
<ellipse fill="none" stroke="#000000" cx="204.2825" cy="-1102" rx="11" ry="11"/>
</g>
<!-- A1 -->
<g id="node2" class="node">
<title>A1</title>
<path fill="none" stroke="#000000" d="M242.5278,-1054C242.5278,-1054 166.0372,-1054 166.0372,-1054 160.0372,-1054 154.0372,-1048 154.0372,-1042 154.0372,-1042 154.0372,-1030 154.0372,-1030 154.0372,-1024 160.0372,-1018 166.0372,-1018 166.0372,-1018 242.5278,-1018 242.5278,-1018 248.5278,-1018 254.5278,-1024 254.5278,-1030 254.5278,-1030 254.5278,-1042 254.5278,-1042 254.5278,-1048 248.5278,-1054 242.5278,-1054"/>
<text text-anchor="middle" x="204.2825" y="-1033" font-family="Helvetica,sans-Serif" font-size="10.00" fill="#000000">Application Boot</text>
</g>
<!-- A0&#45;&gt;A1 -->
<g id="edge1" class="edge">
<title>A0&#45;&gt;A1</title>
<path fill="none" stroke="#000000" d="M204.2825,-1090.804C204.2825,-1083.5358 204.2825,-1073.7135 204.2825,-1064.3916"/>
<polygon fill="#000000" stroke="#000000" points="204.2825,-1054.2423 208.7826,-1064.2423 204.2825,-1059.2423 204.2826,-1064.2423 204.2826,-1064.2423 204.2826,-1064.2423 204.2825,-1059.2423 199.7826,-1064.2424 204.2825,-1054.2423 204.2825,-1054.2423"/>
</g>
<!-- A2 -->
<g id="node3" class="node">
<title>A2</title>
<path fill="none" stroke="#000000" d="M253.7554,-981C253.7554,-981 154.8096,-981 154.8096,-981 148.8096,-981 142.8096,-975 142.8096,-969 142.8096,-969 142.8096,-957 142.8096,-957 142.8096,-951 148.8096,-945 154.8096,-945 154.8096,-945 253.7554,-945 253.7554,-945 259.7554,-945 265.7554,-951 265.7554,-957 265.7554,-957 265.7554,-969 265.7554,-969 265.7554,-975 259.7554,-981 253.7554,-981"/>
<text text-anchor="middle" x="204.2825" y="-960" font-family="Helvetica,sans-Serif" font-size="10.00" fill="#000000">Ioc Inject Component</text>
</g>
<!-- A1&#45;&gt;A2 -->
<g id="edge2" class="edge">
<title>A1&#45;&gt;A2</title>
<path fill="none" stroke="#000000" d="M204.2825,-1017.9551C204.2825,-1009.8828 204.2825,-1000.1764 204.2825,-991.1817"/>
<polygon fill="#000000" stroke="#000000" points="204.2825,-981.0904 208.7826,-991.0903 204.2825,-986.0904 204.2826,-991.0904 204.2826,-991.0904 204.2826,-991.0904 204.2825,-986.0904 199.7826,-991.0904 204.2825,-981.0904 204.2825,-981.0904"/>
</g>
<!-- A3 -->
<g id="node4" class="node">
<title>A3</title>
<path fill="none" stroke="#000000" d="M260.2844,-908C260.2844,-908 148.2806,-908 148.2806,-908 142.2806,-908 136.2806,-902 136.2806,-896 136.2806,-896 136.2806,-884 136.2806,-884 136.2806,-878 142.2806,-872 148.2806,-872 148.2806,-872 260.2844,-872 260.2844,-872 266.2844,-872 272.2844,-878 272.2844,-884 272.2844,-884 272.2844,-896 272.2844,-896 272.2844,-902 266.2844,-908 260.2844,-908"/>
<text text-anchor="middle" x="204.2825" y="-887" font-family="Helvetica,sans-Serif" font-size="10.00" fill="#000000">@Component Decorator</text>
</g>
<!-- A2&#45;&gt;A3 -->
<g id="edge3" class="edge">
<title>A2&#45;&gt;A3</title>
<path fill="none" stroke="#000000" d="M204.2825,-944.9551C204.2825,-936.8828 204.2825,-927.1764 204.2825,-918.1817"/>
<polygon fill="#000000" stroke="#000000" points="204.2825,-908.0904 208.7826,-918.0903 204.2825,-913.0904 204.2826,-918.0904 204.2826,-918.0904 204.2826,-918.0904 204.2825,-913.0904 199.7826,-918.0904 204.2825,-908.0904 204.2825,-908.0904"/>
</g>
<!-- A4 -->
<g id="node5" class="node">
<title>A4</title>
<polygon fill="none" stroke="#000000" points="204.2825,-835 186.2825,-817 204.2825,-799 222.2825,-817 204.2825,-835"/>
</g>
<!-- A3&#45;&gt;A4 -->
<g id="edge4" class="edge">
<title>A3&#45;&gt;A4</title>
<path fill="none" stroke="#000000" d="M204.2825,-871.9551C204.2825,-863.8828 204.2825,-854.1764 204.2825,-845.1817"/>
<polygon fill="#000000" stroke="#000000" points="204.2825,-835.0904 208.7826,-845.0903 204.2825,-840.0904 204.2826,-845.0904 204.2826,-845.0904 204.2826,-845.0904 204.2825,-840.0904 199.7826,-845.0904 204.2825,-835.0904 204.2825,-835.0904"/>
</g>
<!-- A5 -->
<g id="node6" class="node">
<title>A5</title>
<polygon fill="#d3d3d3" stroke="#000000" stroke-width="4" points="198.2825,-443.5 198.2825,-447.5 234.2825,-447.5 234.2825,-443.5 198.2825,-443.5"/>
<text text-anchor="middle" x="206.9215" y="-445.2" font-family="Helvetica,sans-Serif" font-size="1.00" fill="#000000"> </text>
<polyline fill="none" stroke="#000000" stroke-width="4" points="215.5604,-443.5 215.5604,-447.5 "/>
<text text-anchor="middle" x="224.6994" y="-445.2" font-family="Helvetica,sans-Serif" font-size="1.00" fill="#000000"> </text>
</g>
<!-- A4&#45;&gt;A5 -->
<g id="edge5" class="edge">
<title>A4&#45;&gt;A5:n</title>
<path fill="none" stroke="#000000" d="M199.9948,-803.1824C195.2554,-786.6604 188.2825,-758.0889 188.2825,-733 188.2825,-733 188.2825,-733 188.2825,-503 188.2825,-480.798 202.0605,-475.0689 206.1509,-457.7572"/>
<polygon fill="#000000" stroke="#000000" points="207.2825,-447.5 210.6587,-457.9332 206.7342,-452.4698 206.1858,-457.4397 206.1858,-457.4397 206.1858,-457.4397 206.7342,-452.4698 201.713,-456.9462 207.2825,-447.5 207.2825,-447.5"/>
<text text-anchor="middle" x="211.063" y="-615" font-family="Helvetica,sans-Serif" font-size="10.00" fill="#000000">[compiled]</text>
</g>
<!-- A6 -->
<g id="node7" class="node">
<title>A6</title>
<path fill="none" stroke="#000000" d="M322.3563,-751C322.3563,-751 228.2087,-751 228.2087,-751 222.2087,-751 216.2087,-745 216.2087,-739 216.2087,-739 216.2087,-727 216.2087,-727 216.2087,-721 222.2087,-715 228.2087,-715 228.2087,-715 322.3563,-715 322.3563,-715 328.3563,-715 334.3563,-721 334.3563,-727 334.3563,-727 334.3563,-739 334.3563,-739 334.3563,-745 328.3563,-751 322.3563,-751"/>
<text text-anchor="middle" x="275.2825" y="-730" font-family="Helvetica,sans-Serif" font-size="10.00" fill="#000000">Compoent Template</text>
</g>
<!-- A4&#45;&gt;A6 -->
<g id="edge6" class="edge">
<title>A4&#45;&gt;A6</title>
<path fill="none" stroke="#000000" d="M212.7059,-807.0342C222.5905,-795.3398 239.3703,-775.4877 253.0671,-759.2831"/>
<polygon fill="#000000" stroke="#000000" points="259.8957,-751.2041 256.8771,-761.7464 256.668,-755.0228 253.4403,-758.8414 253.4403,-758.8414 253.4403,-758.8414 256.668,-755.0228 250.0035,-755.9365 259.8957,-751.2041 259.8957,-751.2041"/>
<text text-anchor="middle" x="271.6215" y="-772" font-family="Helvetica,sans-Serif" font-size="10.00" fill="#000000">[not compile]</text>
</g>
<!-- A10 -->
<g id="node11" class="node">
<title>A10</title>
<path fill="none" stroke="#000000" d="M262.0268,-406C262.0268,-406 170.5382,-406 170.5382,-406 164.5382,-406 158.5382,-400 158.5382,-394 158.5382,-394 158.5382,-382 158.5382,-382 158.5382,-376 164.5382,-370 170.5382,-370 170.5382,-370 262.0268,-370 262.0268,-370 268.0268,-370 274.0268,-376 274.0268,-382 274.0268,-382 274.0268,-394 274.0268,-394 274.0268,-400 268.0268,-406 262.0268,-406"/>
<text text-anchor="middle" x="216.2825" y="-385" font-family="Helvetica,sans-Serif" font-size="10.00" fill="#000000">Render Component</text>
</g>
<!-- A5&#45;&gt;A10 -->
<g id="edge11" class="edge">
<title>A5&#45;&gt;A10</title>
<path fill="none" stroke="#000000" d="M216.2825,-443.0293C216.2825,-438.2727 216.2825,-427.3488 216.2825,-416.4769"/>
<polygon fill="#000000" stroke="#000000" points="216.2825,-406.2724 220.7826,-416.2723 216.2825,-411.2724 216.2826,-416.2724 216.2826,-416.2724 216.2826,-416.2724 216.2825,-411.2724 211.7826,-416.2724 216.2825,-406.2724 216.2825,-406.2724"/>
</g>
<!-- A7 -->
<g id="node8" class="node">
<title>A7</title>
<path fill="none" stroke="#000000" d="M289.2825,-678C289.2825,-678 259.2825,-678 259.2825,-678 253.2825,-678 247.2825,-672 247.2825,-666 247.2825,-666 247.2825,-654 247.2825,-654 247.2825,-648 253.2825,-642 259.2825,-642 259.2825,-642 289.2825,-642 289.2825,-642 295.2825,-642 301.2825,-648 301.2825,-654 301.2825,-654 301.2825,-666 301.2825,-666 301.2825,-672 295.2825,-678 289.2825,-678"/>
<text text-anchor="middle" x="274.2825" y="-657" font-family="Helvetica,sans-Serif" font-size="10.00" fill="#000000">AST</text>
</g>
<!-- A6&#45;&gt;A7 -->
<g id="edge7" class="edge">
<title>A6&#45;&gt;A7</title>
<path fill="none" stroke="#000000" d="M275.0353,-714.9551C274.9247,-706.8828 274.7918,-697.1764 274.6686,-688.1817"/>
<polygon fill="#000000" stroke="#000000" points="274.5303,-678.0904 279.167,-688.0277 274.5988,-683.0899 274.6674,-688.0894 274.6674,-688.0894 274.6674,-688.0894 274.5988,-683.0899 270.1678,-688.1511 274.5303,-678.0904 274.5303,-678.0904"/>
</g>
<!-- A8 -->
<g id="node9" class="node">
<title>A8</title>
<path fill="none" stroke="#000000" d="M302.5638,-594C302.5638,-594 246.0012,-594 246.0012,-594 240.0012,-594 234.0012,-588 234.0012,-582 234.0012,-582 234.0012,-570 234.0012,-570 234.0012,-564 240.0012,-558 246.0012,-558 246.0012,-558 302.5638,-558 302.5638,-558 308.5638,-558 314.5638,-564 314.5638,-570 314.5638,-570 314.5638,-582 314.5638,-582 314.5638,-588 308.5638,-594 302.5638,-594"/>
<text text-anchor="middle" x="274.2825" y="-573" font-family="Helvetica,sans-Serif" font-size="10.00" fill="#000000">CodeFrame</text>
</g>
<!-- A7&#45;&gt;A8 -->
<g id="edge8" class="edge">
<title>A7&#45;&gt;A8</title>
<path fill="none" stroke="#000000" d="M274.2825,-641.7733C274.2825,-630.8758 274.2825,-616.7946 274.2825,-604.4587"/>
<polygon fill="#000000" stroke="#000000" points="274.2825,-594.1912 278.7826,-604.1911 274.2825,-599.1912 274.2826,-604.1912 274.2826,-604.1912 274.2826,-604.1912 274.2825,-599.1912 269.7826,-604.1912 274.2825,-594.1912 274.2825,-594.1912"/>
</g>
<!-- A9 -->
<g id="node10" class="node">
<title>A9</title>
<path fill="none" stroke="#000000" d="M320.0278,-521C320.0278,-521 228.5372,-521 228.5372,-521 222.5372,-521 216.5372,-515 216.5372,-509 216.5372,-509 216.5372,-497 216.5372,-497 216.5372,-491 222.5372,-485 228.5372,-485 228.5372,-485 320.0278,-485 320.0278,-485 326.0278,-485 332.0278,-491 332.0278,-497 332.0278,-497 332.0278,-509 332.0278,-509 332.0278,-515 326.0278,-521 320.0278,-521"/>
<text text-anchor="middle" x="274.2825" y="-500" font-family="Helvetica,sans-Serif" font-size="10.00" fill="#000000">Save CompoentDef</text>
</g>
<!-- A8&#45;&gt;A9 -->
<g id="edge9" class="edge">
<title>A8&#45;&gt;A9</title>
<path fill="none" stroke="#000000" d="M274.2825,-557.9551C274.2825,-549.8828 274.2825,-540.1764 274.2825,-531.1817"/>
<polygon fill="#000000" stroke="#000000" points="274.2825,-521.0904 278.7826,-531.0903 274.2825,-526.0904 274.2826,-531.0904 274.2826,-531.0904 274.2826,-531.0904 274.2825,-526.0904 269.7826,-531.0904 274.2825,-521.0904 274.2825,-521.0904"/>
</g>
<!-- A9&#45;&gt;A5 -->
<g id="edge10" class="edge">
<title>A9&#45;&gt;A5:n</title>
<path fill="none" stroke="#000000" d="M245.7772,-484.8568C237.1803,-477.5779 229.1476,-468.3655 225.8545,-457.6953"/>
<polygon fill="#000000" stroke="#000000" points="224.2825,-447.5 230.2539,-456.6974 225.0445,-452.4416 225.8065,-457.3832 225.8065,-457.3832 225.8065,-457.3832 225.0445,-452.4416 221.359,-458.069 224.2825,-447.5 224.2825,-447.5"/>
</g>
<!-- A11 -->
<g id="node12" class="node">
<title>A11</title>
<path fill="none" stroke="#000000" d="M277.6915,-333C277.6915,-333 154.8735,-333 154.8735,-333 148.8735,-333 142.8735,-327 142.8735,-321 142.8735,-321 142.8735,-309 142.8735,-309 142.8735,-303 148.8735,-297 154.8735,-297 154.8735,-297 277.6915,-297 277.6915,-297 283.6915,-297 289.6915,-303 289.6915,-309 289.6915,-309 289.6915,-321 289.6915,-321 289.6915,-327 283.6915,-333 277.6915,-333"/>
<text text-anchor="middle" x="216.2825" y="-312" font-family="Helvetica,sans-Serif" font-size="10.00" fill="#000000">Resove with CompoentDef</text>
</g>
<!-- A10&#45;&gt;A11 -->
<g id="edge12" class="edge">
<title>A10&#45;&gt;A11</title>
<path fill="none" stroke="#000000" d="M216.2825,-369.9551C216.2825,-361.8828 216.2825,-352.1764 216.2825,-343.1817"/>
<polygon fill="#000000" stroke="#000000" points="216.2825,-333.0904 220.7826,-343.0903 216.2825,-338.0904 216.2826,-343.0904 216.2826,-343.0904 216.2826,-343.0904 216.2825,-338.0904 211.7826,-343.0904 216.2825,-333.0904 216.2825,-333.0904"/>
</g>
<!-- A12 -->
<g id="node13" class="node">
<title>A12</title>
<polygon fill="#d3d3d3" stroke="#000000" stroke-width="4" points="198.2825,-255.5 198.2825,-259.5 234.2825,-259.5 234.2825,-255.5 198.2825,-255.5"/>
<text text-anchor="middle" x="215.9215" y="-257.2" font-family="Helvetica,sans-Serif" font-size="1.00" fill="#000000"> </text>
</g>
<!-- A11&#45;&gt;A12 -->
<g id="edge13" class="edge">
<title>A11&#45;&gt;A12:n</title>
<path fill="none" stroke="#000000" d="M216.2825,-296.5C216.2825,-288.5749 216.2825,-278.9869 216.2825,-269.5678"/>
<polygon fill="#000000" stroke="#000000" points="216.2825,-259.5 220.7826,-269.5 216.2825,-264.5 216.2826,-269.5 216.2826,-269.5 216.2826,-269.5 216.2825,-264.5 211.7826,-269.5 216.2825,-259.5 216.2825,-259.5"/>
</g>
<!-- A13 -->
<g id="node14" class="node">
<title>A13</title>
<path fill="none" stroke="#000000" d="M96.3484,-218C96.3484,-218 12.2166,-218 12.2166,-218 6.2166,-218 .2166,-212 .2166,-206 .2166,-206 .2166,-194 .2166,-194 .2166,-188 6.2166,-182 12.2166,-182 12.2166,-182 96.3484,-182 96.3484,-182 102.3484,-182 108.3484,-188 108.3484,-194 108.3484,-194 108.3484,-206 108.3484,-206 108.3484,-212 102.3484,-218 96.3484,-218"/>
<text text-anchor="middle" x="54.2825" y="-197" font-family="Helvetica,sans-Serif" font-size="10.00" fill="#000000">Create Composite</text>
</g>
<!-- A12&#45;&gt;A13 -->
<g id="edge14" class="edge">
<title>A12&#45;&gt;A13</title>
<path fill="none" stroke="#000000" d="M210.5168,-255.4535C195.2016,-250.0176 152.1396,-234.7332 115.0948,-221.5846"/>
<polygon fill="#000000" stroke="#000000" points="105.3318,-218.1194 116.2611,-217.2236 110.0438,-219.7919 114.7558,-221.4644 114.7558,-221.4644 114.7558,-221.4644 110.0438,-219.7919 113.2506,-225.7052 105.3318,-218.1194 105.3318,-218.1194"/>
</g>
<!-- A15 -->
<g id="node16" class="node">
<title>A15</title>
<path fill="none" stroke="#000000" d="M216.1875,-218C216.1875,-218 138.3775,-218 138.3775,-218 132.3775,-218 126.3775,-212 126.3775,-206 126.3775,-206 126.3775,-194 126.3775,-194 126.3775,-188 132.3775,-182 138.3775,-182 138.3775,-182 216.1875,-182 216.1875,-182 222.1875,-182 228.1875,-188 228.1875,-194 228.1875,-194 228.1875,-206 228.1875,-206 228.1875,-212 222.1875,-218 216.1875,-218"/>
<text text-anchor="middle" x="177.2825" y="-197" font-family="Helvetica,sans-Serif" font-size="10.00" fill="#000000">Binding Property</text>
</g>
<!-- A12&#45;&gt;A15 -->
<g id="edge16" class="edge">
<title>A12&#45;&gt;A15</title>
<path fill="none" stroke="#000000" d="M214.6067,-255.0293C211.2142,-250.0275 203.1963,-238.2062 195.4578,-226.797"/>
<polygon fill="#000000" stroke="#000000" points="189.6759,-218.2724 199.0134,-224.0223 192.4826,-222.4103 195.2892,-226.5483 195.2892,-226.5483 195.2892,-226.5483 192.4826,-222.4103 191.565,-229.0743 189.6759,-218.2724 189.6759,-218.2724"/>
</g>
<!-- A16 -->
<g id="node17" class="node">
<title>A16</title>
<path fill="none" stroke="#000000" d="M360.655,-218C360.655,-218 257.91,-218 257.91,-218 251.91,-218 245.91,-212 245.91,-206 245.91,-206 245.91,-194 245.91,-194 245.91,-188 251.91,-182 257.91,-182 257.91,-182 360.655,-182 360.655,-182 366.655,-182 372.655,-188 372.655,-194 372.655,-194 372.655,-206 372.655,-206 372.655,-212 366.655,-218 360.655,-218"/>
<text text-anchor="middle" x="309.2825" y="-197" font-family="Helvetica,sans-Serif" font-size="10.00" fill="#000000">Bound Sub Compoent</text>
</g>
<!-- A12&#45;&gt;A16 -->
<g id="edge18" class="edge">
<title>A12&#45;&gt;A16</title>
<path fill="none" stroke="#000000" d="M219.8146,-255.3161C228.3499,-250.039 250.8942,-236.1003 271.2153,-223.5362"/>
<polygon fill="#000000" stroke="#000000" points="279.7409,-218.265 273.6018,-227.3513 275.4881,-220.8944 271.2353,-223.5238 271.2353,-223.5238 271.2353,-223.5238 275.4881,-220.8944 268.8688,-219.6963 279.7409,-218.265 279.7409,-218.265"/>
</g>
<!-- A17 -->
<g id="node18" class="node">
<title>A17</title>
<path fill="none" stroke="#000000" d="M476.3504,-218C476.3504,-218 402.2146,-218 402.2146,-218 396.2146,-218 390.2146,-212 390.2146,-206 390.2146,-206 390.2146,-194 390.2146,-194 390.2146,-188 396.2146,-182 402.2146,-182 402.2146,-182 476.3504,-182 476.3504,-182 482.3504,-182 488.3504,-188 488.3504,-194 488.3504,-194 488.3504,-206 488.3504,-206 488.3504,-212 482.3504,-218 476.3504,-218"/>
<text text-anchor="middle" x="439.2825" y="-197" font-family="Helvetica,sans-Serif" font-size="10.00" fill="#000000">Bound Directive</text>
</g>
<!-- A12&#45;&gt;A17 -->
<g id="edge20" class="edge">
<title>A12&#45;&gt;A17</title>
<path fill="none" stroke="#000000" d="M225.6411,-255.4868C249.6604,-250.2732 315.6049,-235.6669 380.0753,-218.2456"/>
<polygon fill="#000000" stroke="#000000" points="389.9865,-215.5412 381.5238,-222.5149 385.1629,-216.8574 380.3392,-218.1736 380.3392,-218.1736 380.3392,-218.1736 385.1629,-216.8574 379.1546,-213.8323 389.9865,-215.5412 389.9865,-215.5412"/>
</g>
<!-- A14 -->
<g id="node15" class="node">
<title>A14</title>
<polygon fill="#d3d3d3" stroke="#000000" stroke-width="4" points="225.2825,-140.5 225.2825,-144.5 261.2825,-144.5 261.2825,-140.5 225.2825,-140.5"/>
<text text-anchor="middle" x="229.4215" y="-142.2" font-family="Helvetica,sans-Serif" font-size="1.00" fill="#000000"> </text>
<polyline fill="none" stroke="#000000" stroke-width="4" points="233.5604,-140.5 233.5604,-144.5 "/>
<text text-anchor="middle" x="238.1994" y="-142.2" font-family="Helvetica,sans-Serif" font-size="1.00" fill="#000000"> </text>
<polyline fill="none" stroke="#000000" stroke-width="4" points="242.8383,-140.5 242.8383,-144.5 "/>
<text text-anchor="middle" x="247.4773" y="-142.2" font-family="Helvetica,sans-Serif" font-size="1.00" fill="#000000"> </text>
<polyline fill="none" stroke="#000000" stroke-width="4" points="252.1162,-140.5 252.1162,-144.5 "/>
<text text-anchor="middle" x="256.2552" y="-142.2" font-family="Helvetica,sans-Serif" font-size="1.00" fill="#000000"> </text>
</g>
<!-- A13&#45;&gt;A14 -->
<g id="edge15" class="edge">
<title>A13&#45;&gt;A14:n</title>
<path fill="none" stroke="#000000" d="M108.6943,-184.0687C148.8284,-172.165 199.8542,-156.6675 220.2575,-148.9277"/>
<polygon fill="#000000" stroke="#000000" points="229.2825,-144.5 222.2868,-152.9446 224.7936,-146.7023 220.3047,-148.9046 220.3047,-148.9046 220.3047,-148.9046 224.7936,-146.7023 218.3227,-144.8646 229.2825,-144.5 229.2825,-144.5"/>
</g>
<!-- A18 -->
<g id="node19" class="node">
<title>A18</title>
<path fill="none" stroke="#000000" d="M274.0118,-103C274.0118,-103 212.5532,-103 212.5532,-103 206.5532,-103 200.5532,-97 200.5532,-91 200.5532,-91 200.5532,-79 200.5532,-79 200.5532,-73 206.5532,-67 212.5532,-67 212.5532,-67 274.0118,-67 274.0118,-67 280.0118,-67 286.0118,-73 286.0118,-79 286.0118,-79 286.0118,-91 286.0118,-91 286.0118,-97 280.0118,-103 274.0118,-103"/>
<text text-anchor="middle" x="243.2825" y="-82" font-family="Helvetica,sans-Serif" font-size="10.00" fill="#000000">Render View</text>
</g>
<!-- A14&#45;&gt;A18 -->
<g id="edge22" class="edge">
<title>A14&#45;&gt;A18</title>
<path fill="none" stroke="#000000" d="M243.2825,-140.0293C243.2825,-135.2727 243.2825,-124.3488 243.2825,-113.4769"/>
<polygon fill="#000000" stroke="#000000" points="243.2825,-103.2724 247.7826,-113.2723 243.2825,-108.2724 243.2826,-113.2724 243.2826,-113.2724 243.2826,-113.2724 243.2825,-108.2724 238.7826,-113.2724 243.2825,-103.2724 243.2825,-103.2724"/>
</g>
<!-- A15&#45;&gt;A14 -->
<g id="edge17" class="edge">
<title>A15&#45;&gt;A14:n</title>
<path fill="none" stroke="#000000" d="M214.1737,-181.8029C224.1095,-174.771 233.0979,-165.7232 236.6607,-154.6975"/>
<polygon fill="#000000" stroke="#000000" points="238.2825,-144.5 241.1559,-155.0827 237.4971,-149.4379 236.7118,-154.3759 236.7118,-154.3759 236.7118,-154.3759 237.4971,-149.4379 232.2676,-153.6691 238.2825,-144.5 238.2825,-144.5"/>
</g>
<!-- A16&#45;&gt;A14 -->
<g id="edge19" class="edge">
<title>A16&#45;&gt;A14:n</title>
<path fill="none" stroke="#000000" d="M271.7865,-181.9412C261.5858,-174.8566 252.3677,-165.6886 248.8228,-154.4391"/>
<polygon fill="#000000" stroke="#000000" points="247.2825,-144.5 253.261,-153.6928 248.0483,-149.441 248.8141,-154.382 248.8141,-154.382 248.8141,-154.382 248.0483,-149.441 244.3671,-155.0712 247.2825,-144.5 247.2825,-144.5"/>
</g>
<!-- A17&#45;&gt;A14 -->
<g id="edge21" class="edge">
<title>A17&#45;&gt;A14:n</title>
<path fill="none" stroke="#000000" d="M389.9313,-184.6493C387.0058,-183.7501 384.1061,-182.8616 381.2825,-182 356.9034,-174.5603 278.8187,-173.6328 260.265,-153.8276"/>
<polygon fill="#000000" stroke="#000000" points="256.2825,-144.5 264.3478,-151.9298 258.2459,-149.0984 260.2092,-153.6968 260.2092,-153.6968 260.2092,-153.6968 258.2459,-149.0984 256.0706,-155.4638 256.2825,-144.5 256.2825,-144.5"/>
</g>
<!-- A19 -->
<g id="node20" class="node">
<title>A19</title>
<ellipse fill="none" stroke="#000000" cx="243.2825" cy="-15" rx="11" ry="11"/>
<ellipse fill="none" stroke="#000000" cx="243.2825" cy="-15" rx="15" ry="15"/>
</g>
<!-- A18&#45;&gt;A19 -->
<g id="edge23" class="edge">
<title>A18&#45;&gt;A19</title>
<path fill="none" stroke="#000000" d="M243.2825,-66.9733C243.2825,-58.9095 243.2825,-49.2597 243.2825,-40.4761"/>
<polygon fill="#000000" stroke="#000000" points="243.2825,-30.3564 247.7826,-40.3563 243.2825,-35.3564 243.2826,-40.3564 243.2826,-40.3564 243.2826,-40.3564 243.2825,-35.3564 238.7826,-40.3564 243.2825,-30.3564 243.2825,-30.3564"/>
</g>
</g>
</svg>
